name C:\Users\Nicos\Desktop\Gil_twoSteps\Study2\ExperimentalData\IK_Splined\Splined_80_meshInts_p02_maxVel_01.mot
datacolumns 38
datarows 12
range 0.11270886 0.12117975
endheader
                time	         pelvis_tilt	         pelvis_list	     pelvis_rotation	           pelvis_tx	           pelvis_ty	           pelvis_tz	       hip_flexion_r	     hip_adduction_r	      hip_rotation_r	        knee_angle_r	       ankle_angle_r	    subtalar_angle_r	         mtp_angle_r	       hip_flexion_l	     hip_adduction_l	      hip_rotation_l	        knee_angle_l	       ankle_angle_l	    subtalar_angle_l	         mtp_angle_l	    lumbar_extension	      lumbar_bending	     lumbar_rotation	          arm_flex_r	           arm_add_r	           arm_rot_r	        elbow_flex_r	           pro_sup_r	        wrist_flex_r	         wrist_dev_r	          arm_flex_l	           arm_add_l	           arm_rot_l	        elbow_flex_l	           pro_sup_l	        wrist_flex_l	         wrist_dev_l	
          0.11270886	          4.40994361	          3.64334526	        -18.41635877	         -1.31144493	          0.96782773	          0.32063610	          0.29484496	         -6.62480901	          7.50690929	        -38.26000835	         19.09617864	        -10.55286792	          3.52132771	         60.13863397	        -13.26623989	        -19.35077271	       -135.78782369	         -4.72458202	        -12.42210864	         10.64951844	        -16.99489968	         -9.18368068	          6.88390059	         28.21308423	         -3.51584422	         21.39294977	        111.02592443	         65.02261502	        -13.41457369	         13.37105441	        -57.35330055	         -8.05224380	        -26.00470945	         46.14391400	         81.18190155	          1.55619156	         21.18521824	
          0.11314300	          4.33488102	          3.69016609	        -18.45778951	         -1.30707857	          0.96769742	          0.32077948	          0.08756444	         -6.69945284	          7.59694929	        -38.18306133	         18.83377063	        -10.76126718	          3.74582106	         60.49856716	        -13.27090042	        -19.23126702	       -135.57473793	         -4.63548045	        -12.27015113	         10.62900234	        -16.81392243	         -9.25440291	          7.02509991	         28.43319410	         -3.47453696	         21.42550267	        111.18432710	         65.03559767	        -13.42652252	         13.40059833	        -57.65572589	         -8.01504803	        -26.21365807	         46.27400693	         81.14853598	          1.60609870	         21.20738297	
          0.11451472	          4.09828154	          3.83917522	        -18.55488535	         -1.29324286	          0.96731314	          0.32120824	         -0.58791269	         -6.93419261	          7.85269443	        -37.90926242	         17.94251816	        -11.43564116	          4.45599416	         61.62693378	        -13.25337231	        -18.83557110	       -134.88184690	         -4.35828554	        -11.77678300	         10.57077441	        -16.24390902	         -9.47245722	          7.44085280	         29.12120938	         -3.35954646	         21.55082605	        111.69235306	         65.07269244	        -13.46588724	         13.49353582	        -58.61409553	         -7.89575725	        -26.88222067	         46.70345531	         81.02833400	          1.76583607	         21.27728011	
          0.11550886	          3.92760376	          3.94862667	        -18.59242054	         -1.28317695	          0.96705988	          0.32149343	         -1.09692424	         -7.10365216	          8.00867915	        -37.68219637	         17.23805988	        -11.93733645	          4.96907385	         62.43575316	        -13.20873860	        -18.53333357	       -134.36128435	         -4.16235758	        -11.40946999	         10.53513764	        -15.83292546	         -9.62595264	          7.71183233	         29.61333489	         -3.29096928	         21.66385116	        112.06756487	         65.09555725	        -13.49617765	         13.56026419	        -59.31102211	         -7.80720583	        -27.37415556	         47.03129169	         80.92729599	          1.88333374	         21.32784785	
          0.11554430	          3.92153456	          3.95255726	        -18.59323954	         -1.28281748	          0.96705123	          0.32150317	         -1.11537269	         -7.10968843	          8.01375711	        -37.67366342	         17.21204301	        -11.95539485	          4.98730862	         62.46444300	        -13.20663454	        -18.52234146	       -134.34244318	         -4.15546086	        -11.39626100	         10.53397298	        -15.81831179	         -9.63136244	          7.72100276	         29.63078648	         -3.28875370	         21.66823660	        112.08104903	         65.09630617	        -13.49728796	         13.56263026	        -59.33590092	         -7.80401073	        -27.39180141	         47.04322542	         80.92347928	          1.88754666	         21.32964979	
          0.11597845	          3.84729261	          4.00088192	        -18.60033769	         -1.27841080	          0.96694738	          0.32161993	         -1.34302895	         -7.18361484	          8.07316388	        -37.56672079	         16.88834624	        -12.17745552	          5.21023537	         62.81502571	        -13.17793799	        -18.38656611	       -134.11009177	         -4.07151577	        -11.23395735	         10.52031208	        -15.63954356	         -9.69730433	          7.83052397	         29.84405373	         -3.26289714	         21.72398130	        112.24680949	         65.10509630	        -13.51106846	         13.59152936	        -59.64080627	         -7.76464210	        -27.60852137	         47.19073493	         80.87553484	          1.93927456	         21.35171856	
          0.11735016	          3.61396792	          4.15604152	        -18.58688110	         -1.26444547	          0.96664391	          0.32195657	         -2.08235282	         -7.41726216	          8.22578636	        -37.19995859	         15.80500131	        -12.88792712	          5.90784603	         63.91223053	        -13.05113922	        -17.94514012	       -133.35708730	         -3.81332473	        -10.71705664	         10.48452028	        -15.07768353	         -9.90214067	          8.14177943	         30.51215069	         -3.19674404	         21.92496977	        112.77770039	         65.12795002	        -13.55695517	         13.68168552	        -60.60583574	         -7.63718866	        -28.29984293	         47.67224941	         80.70959588	          2.10409158	         21.42143511	
          0.11834430	          3.44594777	          4.27127512	        -18.54302090	         -1.25428407	          0.96644614	          0.32216743	         -2.63621205	         -7.58692553	          8.30178101	        -36.90780536	         14.96282251	        -13.40873419	          6.40506336	         64.69714062	        -12.92440684	        -17.61548124	       -132.79363377	         -3.63366898	        -10.34165728	         10.46539418	        -14.67328102	        -10.04785867	          8.33376475	         30.99125677	         -3.16344868	         22.09414537	        113.16924482	         65.13940032	        -13.59265744	         13.74574518	        -61.30618961	         -7.54159217	        -28.80647586	         48.03464694	         80.57564113	          2.22469980	         21.47199334	
          0.11837975	          3.43997268	          4.27543236	        -18.54092795	         -1.25392117	          0.96643942	          0.32217440	         -2.65622451	         -7.59298286	          8.30393627	        -36.89699533	         14.93191917	        -13.42735985	          6.42263430	         64.72496044	        -12.91934151	        -17.60360489	       -132.77327333	         -3.62739012	        -10.32830297	         10.46481527	        -14.65890625	        -10.05301932	          8.34008117	         31.00826338	         -3.16248739	         22.10053976	        113.18330930	         65.13972325	        -13.59397114	         13.74800672	        -61.33116496	         -7.53812981	        -28.82461657	         48.04775859	         80.57065336	          2.22901571	         21.47379689	
          0.11881389	          3.36686272	          4.32664754	        -18.51233440	         -1.24947254	          0.96635883	          0.32225662	         -2.90279989	         -7.66723850	          8.32718282	        -36.76242992	         14.54850036	        -13.65571543	          6.63690286	         65.06479775	        -12.85421729	        -17.45753607	       -132.52236548	         -3.55122048	        -10.16503087	         10.45828997	        -14.48306722	        -10.11606694	          8.41447650	         31.21617807	         -3.15196840	         22.18088652	        113.35617305	         65.14318200	        -13.61030087	         13.77557549	        -61.63709624	         -7.49540240	        -29.04723097	         48.20937648	         80.50837475	          2.28196418	         21.49589655	
          0.12018560	          3.13674104	          4.49232807	        -18.38605849	         -1.23537406	          0.96612487	          0.32247628	         -3.69869576	         -7.90275307	          8.36143390	        -36.31185341	         13.27807475	        -14.37802192	          7.30091107	         66.12704789	        -12.61069819	        -16.99022843	       -131.71136073	         -3.32008927	         -9.65502401	         10.44440457	        -13.93034991	        -10.31367795	          8.61302861	         31.86848527	         -3.13391343	         22.45921952	        113.90948728	         65.14776263	        -13.66494038	         13.86093968	        -62.60336939	         -7.35633750	        -29.75511441	         48.73145846	         80.29724275	          2.45016296	         21.56584767	
          0.12117975	          2.97061431	          4.61646395	        -18.26054986	         -1.22511586	          0.96597364	          0.32259507	         -4.29031754	         -8.07447981	          8.34797667	        -35.96238148	         12.30196630	        -14.89972519	          7.76781890	         66.88572047	        -12.39806499	        -16.64809149	       -131.10646174	         -3.16237280	         -9.29402500	         10.44041556	        -13.53239546	        -10.45595282	          8.72193415	         32.33716575	         -3.13508916	         22.68384519	        114.31729376	         65.14459567	        -13.70763729	         13.92098669	        -63.30268210	         -7.25143129	        -30.27174800	         49.11941346	         80.13065055	          2.57278315	         21.61670420	
